<?xml version='1.0' encoding='UTF-8'?>
<!DOCTYPE svg PUBLIC "-//W3C//DTD SVG 1.0//EN" "http://www.w3.org/TR/2001/REC-SVG-20010904/DTD/svg10.dtd">
<svg viewBox="0 0 832 520" xmlns="http://www.w3.org/2000/svg" xmlns:inkspace="http://www.inkscape.org/namespaces/inkscape" xmlns:xlink="http://www.w3.org/1999/xlink">
  <defs id="defs_block">
    <filter height="1.504" id="filter_blur" inkspace:collect="always" width="1.1575" x="-0.07875" y="-0.252">
      <feGaussianBlur id="feGaussianBlur3780" inkspace:collect="always" stdDeviation="4.2" />
    </filter>
  </defs>
  <title>blockdiag</title>
  <desc>blockdiag
{
    default_shape = roundedbox;
    
    L[label = "data/.make_hmda_dl", color=pink ]
    D[label = "data/.make_hmda_db", color=pink ]
    P[label = "data/.make_hmda_mktshare", color=pink ]
    S[label = "data/.make_mktshare_summary", color=pink ]
    L -&gt; D -&gt; P -&gt; S

    D -&gt; P[folded];

    group{ label="Download"; L1 -&gt; L }
    L1[label = "src/get_hmda_2012.sh"]

    group { label="Put in database"; D1 -&gt; D; D2 -&gt; D; D3 -&gt; D; D4 -&gt; D}
    D1[label="src/db_hmda/make_tables.sql"]
    D2[label="dicts/agencies.csv"]
    D3[label="dicts/loan-types.csv"]
    D4[label="src/db_hmda/python-na.py"]

    group { label="Process marketshare"; P1 -&gt; P; P2 -&gt; P}
    P1[label="src/db_hmda/analyze_geo_msa.sql"]
    P2[label="src/db_hmda/analyze_geo_tract.sql"]

    group{ label="Summarize"; S1 -&gt; S}
    S1[label="src/db_hmda/make_summary.sql"]
}
</desc>
  <rect fill="rgb(243,152,0)" height="60" style="filter:url(#filter_blur)" width="336" x="56" y="30" />
  <rect fill="rgb(243,152,0)" height="300" style="filter:url(#filter_blur)" width="336" x="440" y="30" />
  <rect fill="rgb(243,152,0)" height="140" style="filter:url(#filter_blur)" width="336" x="56" y="350" />
  <rect fill="rgb(243,152,0)" height="60" style="filter:url(#filter_blur)" width="336" x="440" y="350" />
  <path d="M 75 46 L 187 46 A8,8 0 0 1 195 54 L 195 78 A8,8 0 0 1 187 86 L 75 86 A8,8 0 0 1 67 78 L 67 54 A8,8 0 0 1 75 46" fill="rgb(0,0,0)" stroke="rgb(0,0,0)" style="filter:url(#filter_blur);opacity:0.7;fill-opacity:1" />
  <path d="M 267 46 L 379 46 A8,8 0 0 1 387 54 L 387 78 A8,8 0 0 1 379 86 L 267 86 A8,8 0 0 1 259 78 L 259 54 A8,8 0 0 1 267 46" fill="rgb(0,0,0)" stroke="rgb(0,0,0)" style="filter:url(#filter_blur);opacity:0.7;fill-opacity:1" />
  <path d="M 459 46 L 571 46 A8,8 0 0 1 579 54 L 579 78 A8,8 0 0 1 571 86 L 459 86 A8,8 0 0 1 451 78 L 451 54 A8,8 0 0 1 459 46" fill="rgb(0,0,0)" stroke="rgb(0,0,0)" style="filter:url(#filter_blur);opacity:0.7;fill-opacity:1" />
  <path d="M 459 126 L 571 126 A8,8 0 0 1 579 134 L 579 158 A8,8 0 0 1 571 166 L 459 166 A8,8 0 0 1 451 158 L 451 134 A8,8 0 0 1 459 126" fill="rgb(0,0,0)" stroke="rgb(0,0,0)" style="filter:url(#filter_blur);opacity:0.7;fill-opacity:1" />
  <path d="M 459 206 L 571 206 A8,8 0 0 1 579 214 L 579 238 A8,8 0 0 1 571 246 L 459 246 A8,8 0 0 1 451 238 L 451 214 A8,8 0 0 1 459 206" fill="rgb(0,0,0)" stroke="rgb(0,0,0)" style="filter:url(#filter_blur);opacity:0.7;fill-opacity:1" />
  <path d="M 459 286 L 571 286 A8,8 0 0 1 579 294 L 579 318 A8,8 0 0 1 571 326 L 459 326 A8,8 0 0 1 451 318 L 451 294 A8,8 0 0 1 459 286" fill="rgb(0,0,0)" stroke="rgb(0,0,0)" style="filter:url(#filter_blur);opacity:0.7;fill-opacity:1" />
  <path d="M 651 46 L 763 46 A8,8 0 0 1 771 54 L 771 78 A8,8 0 0 1 763 86 L 651 86 A8,8 0 0 1 643 78 L 643 54 A8,8 0 0 1 651 46" fill="rgb(0,0,0)" stroke="rgb(0,0,0)" style="filter:url(#filter_blur);opacity:0.7;fill-opacity:1" />
  <path d="M 75 366 L 187 366 A8,8 0 0 1 195 374 L 195 398 A8,8 0 0 1 187 406 L 75 406 A8,8 0 0 1 67 398 L 67 374 A8,8 0 0 1 75 366" fill="rgb(0,0,0)" stroke="rgb(0,0,0)" style="filter:url(#filter_blur);opacity:0.7;fill-opacity:1" />
  <path d="M 75 446 L 187 446 A8,8 0 0 1 195 454 L 195 478 A8,8 0 0 1 187 486 L 75 486 A8,8 0 0 1 67 478 L 67 454 A8,8 0 0 1 75 446" fill="rgb(0,0,0)" stroke="rgb(0,0,0)" style="filter:url(#filter_blur);opacity:0.7;fill-opacity:1" />
  <path d="M 267 366 L 379 366 A8,8 0 0 1 387 374 L 387 398 A8,8 0 0 1 379 406 L 267 406 A8,8 0 0 1 259 398 L 259 374 A8,8 0 0 1 267 366" fill="rgb(0,0,0)" stroke="rgb(0,0,0)" style="filter:url(#filter_blur);opacity:0.7;fill-opacity:1" />
  <path d="M 459 366 L 571 366 A8,8 0 0 1 579 374 L 579 398 A8,8 0 0 1 571 406 L 459 406 A8,8 0 0 1 451 398 L 451 374 A8,8 0 0 1 459 366" fill="rgb(0,0,0)" stroke="rgb(0,0,0)" style="filter:url(#filter_blur);opacity:0.7;fill-opacity:1" />
  <path d="M 651 366 L 763 366 A8,8 0 0 1 771 374 L 771 398 A8,8 0 0 1 763 406 L 651 406 A8,8 0 0 1 643 398 L 643 374 A8,8 0 0 1 651 366" fill="rgb(0,0,0)" stroke="rgb(0,0,0)" style="filter:url(#filter_blur);opacity:0.7;fill-opacity:1" />
  <path d="M 72 40 L 184 40 A8,8 0 0 1 192 48 L 192 72 A8,8 0 0 1 184 80 L 72 80 A8,8 0 0 1 64 72 L 64 48 A8,8 0 0 1 72 40" fill="rgb(255,255,255)" stroke="rgb(0,0,0)" />
  <text fill="rgb(0,0,0)" font-family="sans-serif" font-size="11" font-style="normal" font-weight="normal" text-anchor="middle" textLength="120" x="128.0" y="66">src/get_hmda_2012.sh</text>
  <path d="M 264 40 L 376 40 A8,8 0 0 1 384 48 L 384 72 A8,8 0 0 1 376 80 L 264 80 A8,8 0 0 1 256 72 L 256 48 A8,8 0 0 1 264 40" fill="rgb(255,192,203)" stroke="rgb(0,0,0)" />
  <text fill="rgb(0,0,0)" font-family="sans-serif" font-size="11" font-style="normal" font-weight="normal" text-anchor="middle" textLength="108" x="320.0" y="66">data/.make_hmda_dl</text>
  <path d="M 456 40 L 568 40 A8,8 0 0 1 576 48 L 576 72 A8,8 0 0 1 568 80 L 456 80 A8,8 0 0 1 448 72 L 448 48 A8,8 0 0 1 456 40" fill="rgb(255,255,255)" stroke="rgb(0,0,0)" />
  <text fill="rgb(0,0,0)" font-family="sans-serif" font-size="11" font-style="normal" font-weight="normal" text-anchor="middle" textLength="126" x="512.0" y="59">src/db_hmda/make_tabl</text>
  <text fill="rgb(0,0,0)" font-family="sans-serif" font-size="11" font-style="normal" font-weight="normal" text-anchor="middle" textLength="36" x="512.0" y="72">es.sql</text>
  <path d="M 456 120 L 568 120 A8,8 0 0 1 576 128 L 576 152 A8,8 0 0 1 568 160 L 456 160 A8,8 0 0 1 448 152 L 448 128 A8,8 0 0 1 456 120" fill="rgb(255,255,255)" stroke="rgb(0,0,0)" />
  <text fill="rgb(0,0,0)" font-family="sans-serif" font-size="11" font-style="normal" font-weight="normal" text-anchor="middle" textLength="108" x="512.0" y="146">dicts/agencies.csv</text>
  <path d="M 456 200 L 568 200 A8,8 0 0 1 576 208 L 576 232 A8,8 0 0 1 568 240 L 456 240 A8,8 0 0 1 448 232 L 448 208 A8,8 0 0 1 456 200" fill="rgb(255,255,255)" stroke="rgb(0,0,0)" />
  <text fill="rgb(0,0,0)" font-family="sans-serif" font-size="11" font-style="normal" font-weight="normal" text-anchor="middle" textLength="120" x="512.0" y="226">dicts/loan-types.csv</text>
  <path d="M 456 280 L 568 280 A8,8 0 0 1 576 288 L 576 312 A8,8 0 0 1 568 320 L 456 320 A8,8 0 0 1 448 312 L 448 288 A8,8 0 0 1 456 280" fill="rgb(255,255,255)" stroke="rgb(0,0,0)" />
  <text fill="rgb(0,0,0)" font-family="sans-serif" font-size="11" font-style="normal" font-weight="normal" text-anchor="middle" textLength="126" x="512.0" y="299">src/db_hmda/python-na</text>
  <text fill="rgb(0,0,0)" font-family="sans-serif" font-size="11" font-style="normal" font-weight="normal" text-anchor="middle" textLength="18" x="512.0" y="312">.py</text>
  <path d="M 648 40 L 760 40 A8,8 0 0 1 768 48 L 768 72 A8,8 0 0 1 760 80 L 648 80 A8,8 0 0 1 640 72 L 640 48 A8,8 0 0 1 648 40" fill="rgb(255,192,203)" stroke="rgb(0,0,0)" />
  <text fill="rgb(0,0,0)" font-family="sans-serif" font-size="11" font-style="normal" font-weight="normal" text-anchor="middle" textLength="108" x="704.0" y="66">data/.make_hmda_db</text>
  <path d="M 72 360 L 184 360 A8,8 0 0 1 192 368 L 192 392 A8,8 0 0 1 184 400 L 72 400 A8,8 0 0 1 64 392 L 64 368 A8,8 0 0 1 72 360" fill="rgb(255,255,255)" stroke="rgb(0,0,0)" />
  <text fill="rgb(0,0,0)" font-family="sans-serif" font-size="11" font-style="normal" font-weight="normal" text-anchor="middle" textLength="126" x="128.0" y="379">src/db_hmda/analyze_g</text>
  <text fill="rgb(0,0,0)" font-family="sans-serif" font-size="11" font-style="normal" font-weight="normal" text-anchor="middle" textLength="60" x="128.0" y="392">eo_msa.sql</text>
  <path d="M 72 440 L 184 440 A8,8 0 0 1 192 448 L 192 472 A8,8 0 0 1 184 480 L 72 480 A8,8 0 0 1 64 472 L 64 448 A8,8 0 0 1 72 440" fill="rgb(255,255,255)" stroke="rgb(0,0,0)" />
  <text fill="rgb(0,0,0)" font-family="sans-serif" font-size="11" font-style="normal" font-weight="normal" text-anchor="middle" textLength="126" x="128.0" y="459">src/db_hmda/analyze_g</text>
  <text fill="rgb(0,0,0)" font-family="sans-serif" font-size="11" font-style="normal" font-weight="normal" text-anchor="middle" textLength="72" x="128.0" y="472">eo_tract.sql</text>
  <path d="M 264 360 L 376 360 A8,8 0 0 1 384 368 L 384 392 A8,8 0 0 1 376 400 L 264 400 A8,8 0 0 1 256 392 L 256 368 A8,8 0 0 1 264 360" fill="rgb(255,192,203)" stroke="rgb(0,0,0)" />
  <text fill="rgb(0,0,0)" font-family="sans-serif" font-size="11" font-style="normal" font-weight="normal" text-anchor="middle" textLength="126" x="320.0" y="379">data/.make_hmda_mktsh</text>
  <text fill="rgb(0,0,0)" font-family="sans-serif" font-size="11" font-style="normal" font-weight="normal" text-anchor="middle" textLength="18" x="320.0" y="392">are</text>
  <path d="M 456 360 L 568 360 A8,8 0 0 1 576 368 L 576 392 A8,8 0 0 1 568 400 L 456 400 A8,8 0 0 1 448 392 L 448 368 A8,8 0 0 1 456 360" fill="rgb(255,255,255)" stroke="rgb(0,0,0)" />
  <text fill="rgb(0,0,0)" font-family="sans-serif" font-size="11" font-style="normal" font-weight="normal" text-anchor="middle" textLength="126" x="512.0" y="379">src/db_hmda/make_summ</text>
  <text fill="rgb(0,0,0)" font-family="sans-serif" font-size="11" font-style="normal" font-weight="normal" text-anchor="middle" textLength="42" x="512.0" y="392">ary.sql</text>
  <path d="M 648 360 L 760 360 A8,8 0 0 1 768 368 L 768 392 A8,8 0 0 1 760 400 L 648 400 A8,8 0 0 1 640 392 L 640 368 A8,8 0 0 1 648 360" fill="rgb(255,192,203)" stroke="rgb(0,0,0)" />
  <text fill="rgb(0,0,0)" font-family="sans-serif" font-size="11" font-style="normal" font-weight="normal" text-anchor="middle" textLength="126" x="704.0" y="379">data/.make_mktshare_s</text>
  <text fill="rgb(0,0,0)" font-family="sans-serif" font-size="11" font-style="normal" font-weight="normal" text-anchor="middle" textLength="36" x="704.0" y="392">ummary</text>
  <path d="M 192 60 L 248 60" fill="none" stroke="rgb(0,0,0)" />
  <polygon fill="rgb(0,0,0)" points="255,60 248,56 248,64 255,60" stroke="rgb(0,0,0)" />
  <path d="M 384 60 L 416 60" fill="none" stroke="rgb(0,0,0)" />
  <path d="M 416 60 L 416 100" fill="none" stroke="rgb(0,0,0)" />
  <path d="M 416 100 L 624 100" fill="none" stroke="rgb(0,0,0)" />
  <path d="M 624 100 L 624 60" fill="none" stroke="rgb(0,0,0)" />
  <path d="M 624 60 L 632 60" fill="none" stroke="rgb(0,0,0)" />
  <polygon fill="rgb(0,0,0)" points="639,60 632,56 632,64 639,60" stroke="rgb(0,0,0)" />
  <path d="M 576 60 L 632 60" fill="none" stroke="rgb(0,0,0)" />
  <polygon fill="rgb(0,0,0)" points="639,60 632,56 632,64 639,60" stroke="rgb(0,0,0)" />
  <path d="M 704 80 L 704 340" fill="none" stroke="rgb(0,0,0)" />
  <path d="M 320 340 L 704 340" fill="none" stroke="rgb(0,0,0)" />
  <path d="M 320 340 L 320 352" fill="none" stroke="rgb(0,0,0)" />
  <polygon fill="rgb(0,0,0)" points="320,359 316,352 324,352 320,359" stroke="rgb(0,0,0)" />
  <path d="M 576 140 L 624 140" fill="none" stroke="rgb(0,0,0)" />
  <path d="M 624 140 L 624 60" fill="none" stroke="rgb(0,0,0)" />
  <path d="M 624 60 L 632 60" fill="none" stroke="rgb(0,0,0)" />
  <polygon fill="rgb(0,0,0)" points="639,60 632,56 632,64 639,60" stroke="rgb(0,0,0)" />
  <path d="M 576 220 L 624 220" fill="none" stroke="rgb(0,0,0)" />
  <path d="M 624 220 L 624 60" fill="none" stroke="rgb(0,0,0)" />
  <path d="M 624 60 L 632 60" fill="none" stroke="rgb(0,0,0)" />
  <polygon fill="rgb(0,0,0)" points="639,60 632,56 632,64 639,60" stroke="rgb(0,0,0)" />
  <path d="M 576 300 L 624 300" fill="none" stroke="rgb(0,0,0)" />
  <path d="M 624 300 L 624 60" fill="none" stroke="rgb(0,0,0)" />
  <path d="M 624 60 L 632 60" fill="none" stroke="rgb(0,0,0)" />
  <polygon fill="rgb(0,0,0)" points="639,60 632,56 632,64 639,60" stroke="rgb(0,0,0)" />
  <path d="M 192 380 L 248 380" fill="none" stroke="rgb(0,0,0)" />
  <polygon fill="rgb(0,0,0)" points="255,380 248,376 248,384 255,380" stroke="rgb(0,0,0)" />
  <path d="M 384 380 L 416 380" fill="none" stroke="rgb(0,0,0)" />
  <path d="M 416 380 L 416 420" fill="none" stroke="rgb(0,0,0)" />
  <path d="M 416 420 L 624 420" fill="none" stroke="rgb(0,0,0)" />
  <path d="M 624 420 L 624 380" fill="none" stroke="rgb(0,0,0)" />
  <path d="M 624 380 L 632 380" fill="none" stroke="rgb(0,0,0)" />
  <polygon fill="rgb(0,0,0)" points="639,380 632,376 632,384 639,380" stroke="rgb(0,0,0)" />
  <path d="M 192 460 L 240 460" fill="none" stroke="rgb(0,0,0)" />
  <path d="M 240 460 L 240 380" fill="none" stroke="rgb(0,0,0)" />
  <path d="M 240 380 L 248 380" fill="none" stroke="rgb(0,0,0)" />
  <polygon fill="rgb(0,0,0)" points="255,380 248,376 248,384 255,380" stroke="rgb(0,0,0)" />
  <path d="M 576 380 L 632 380" fill="none" stroke="rgb(0,0,0)" />
  <polygon fill="rgb(0,0,0)" points="639,380 632,376 632,384 639,380" stroke="rgb(0,0,0)" />
  <text fill="rgb(0,0,0)" font-family="sans-serif" font-size="11" font-style="normal" font-weight="normal" text-anchor="middle" textLength="48" x="224.0" y="36">Download</text>
  <text fill="rgb(0,0,0)" font-family="sans-serif" font-size="11" font-style="normal" font-weight="normal" text-anchor="middle" textLength="90" x="608.0" y="36">Put in database</text>
  <text fill="rgb(0,0,0)" font-family="sans-serif" font-size="11" font-style="normal" font-weight="normal" text-anchor="middle" textLength="114" x="224.0" y="356">Process marketshare</text>
  <text fill="rgb(0,0,0)" font-family="sans-serif" font-size="11" font-style="normal" font-weight="normal" text-anchor="middle" textLength="54" x="608.0" y="356">Summarize</text>
</svg>
